<svg width="90" height="90" viewBox="0 0 90 90" fill="none" xmlns="http://www.w3.org/2000/svg">
<path fill-rule="evenodd" clip-rule="evenodd" d="M44.5141 12C45.452 11.9999 46.369 12.2774 47.1496 12.7975C47.9301 13.3176 48.5393 14.057 48.9004 14.9227L66.6811 57.5982L66.7642 57.7977L72.6618 71.9524C73.1241 73.1115 73.112 74.4059 72.628 75.5561C72.1441 76.7063 71.2271 77.62 70.0752 78.0999C68.9232 78.5798 67.6288 78.5873 66.4714 78.1208C65.3139 77.6544 64.3864 76.7514 63.8891 75.6069L59.1677 64.2751H29.8604L25.139 75.6093C24.6538 76.7726 23.7263 77.6956 22.5605 78.175C21.3948 78.6545 20.0864 78.6513 18.923 78.166C17.7597 77.6808 16.8368 76.7533 16.3573 75.5876C15.8778 74.4218 15.881 73.1134 16.3663 71.95L22.2639 57.7977C22.2901 57.7298 22.3178 57.6625 22.347 57.5958L40.1277 14.925C40.4884 14.0589 41.0975 13.319 41.8781 12.7985C42.6586 12.2779 43.5758 12.0001 44.5141 12ZM33.8214 54.7705H55.2067L44.5141 29.1082L33.8214 54.7705Z" fill="black"/>
</svg>
