<svg width="50" height="44" viewBox="0 0 50 44" fill="none" xmlns="http://www.w3.org/2000/svg">
<path d="M1.78571 8.16071H48.2143C49.2006 8.16071 50 7.36127 50 6.375V1.91071C50 0.924442 49.2006 0.125 48.2143 0.125H1.78571C0.799442 0.125 0 0.924442 0 1.91071V6.375C0 7.36127 0.799442 8.16071 1.78571 8.16071ZM1.78571 26.0179H48.2143C49.2006 26.0179 50 25.2184 50 24.2321V19.7679C50 18.7816 49.2006 17.9821 48.2143 17.9821H1.78571C0.799442 17.9821 0 18.7816 0 19.7679V24.2321C0 25.2184 0.799442 26.0179 1.78571 26.0179ZM1.78571 43.875H48.2143C49.2006 43.875 50 43.0756 50 42.0893V37.625C50 36.6387 49.2006 35.8393 48.2143 35.8393H1.78571C0.799442 35.8393 0 36.6387 0 37.625V42.0893C0 43.0756 0.799442 43.875 1.78571 43.875Z" fill="#222222"/>
</svg>
