<svg width="90" height="90" viewBox="0 0 90 90" fill="none" xmlns="http://www.w3.org/2000/svg">
<path d="M7.01491 4.77923C5.41214 7.22382 5.01698 10.2267 5.63626 13.6945C6.37454 17.8299 8.60872 22.4902 11.8378 26.8781C18.2964 35.654 28.7216 43.2402 37.9964 44.3903L38.6446 44.4729L39.0621 44.9728L73.1909 86.1716C76.5926 86.9844 78.789 86.4783 79.9311 85.3472C81.0819 84.2074 81.6126 82.0064 80.7602 78.5138L7.01526 4.77905L7.01491 4.77923ZM72.9441 5.18563L53.8719 24.2579C51.7625 26.3669 51.7442 28.6876 52.8333 31.2232L53.2839 32.2726L52.4598 33.0637L46.0549 39.1719L51.2569 44.3738L57.3379 37.9521L58.1289 37.1172L59.178 37.5732C61.8437 38.7219 64.3716 38.6748 66.3302 36.7162L85.4024 17.644L82.925 15.1665L70.5213 27.5647L68.2033 25.2414L80.6012 12.8435L77.9592 10.2007L65.5613 22.5989L63.2375 20.2754L75.6353 7.87755L72.9441 5.18563ZM37.0788 47.7358L4.48788 78.8325C3.68368 82.1636 4.1989 84.2443 5.28452 85.3197C6.3705 86.3952 8.47108 86.8889 11.761 86.0942L42.2098 53.9321L37.0788 47.7358Z" fill="black"/>
</svg>
