<svg width="90" height="90" viewBox="0 0 90 90" fill="none" xmlns="http://www.w3.org/2000/svg">
<path d="M73.125 13.125H16.875C14.3886 13.125 12.004 14.1127 10.2459 15.8709C8.48772 17.629 7.5 20.0136 7.5 22.5V67.5C7.5 68.7311 7.74249 69.9502 8.21363 71.0877C8.68477 72.2251 9.37532 73.2586 10.2459 74.1291C11.1164 74.9997 12.1499 75.6902 13.2873 76.1614C14.4248 76.6325 15.6439 76.875 16.875 76.875H73.125C74.3561 76.875 75.5752 76.6325 76.7127 76.1614C77.8501 75.6902 78.8836 74.9997 79.7541 74.1291C80.6247 73.2586 81.3152 72.2251 81.7864 71.0877C82.2575 69.9502 82.5 68.7311 82.5 67.5V22.5C82.5 20.0136 81.5123 17.629 79.7541 15.8709C77.996 14.1127 75.6114 13.125 73.125 13.125Z" stroke="#222222" stroke-width="4" stroke-linejoin="round"/>
<path d="M33.75 28.125L45 39.375L56.25 28.125M31.875 43.125H58.125M31.875 54.375H58.125M45 43.125V63.75" stroke="#222222" stroke-width="4" stroke-linecap="round" stroke-linejoin="round"/>
</svg>
