<svg width="90" height="90" viewBox="0 0 90 90" fill="none" xmlns="http://www.w3.org/2000/svg">
<path d="M65.3025 39.0525C67.5 36.855 67.5 33.3225 67.5 26.25C67.5 19.1775 67.5 15.645 65.3025 13.4475M65.3025 39.0525C63.105 41.25 59.5725 41.25 52.5 41.25H37.5C30.4275 41.25 26.895 41.25 24.6975 39.0525M65.3025 13.4475C63.105 11.25 59.5725 11.25 52.5 11.25H37.5C30.4275 11.25 26.895 11.25 24.6975 13.4475M24.6975 13.4475C22.5 15.645 22.5 19.1775 22.5 26.25C22.5 33.3225 22.5 36.855 24.6975 39.0525M48.75 26.25C48.75 27.2446 48.3549 28.1984 47.6516 28.9016C46.9484 29.6049 45.9946 30 45 30C44.0054 30 43.0516 29.6049 42.3484 28.9016C41.6451 28.1984 41.25 27.2446 41.25 26.25C41.25 25.2554 41.6451 24.3016 42.3484 23.5984C43.0516 22.8951 44.0054 22.5 45 22.5C45.9946 22.5 46.9484 22.8951 47.6516 23.5984C48.3549 24.3016 48.75 25.2554 48.75 26.25Z" stroke="black" stroke-width="3"/>
<path d="M67.5 22.5C64.5163 22.5 61.6548 21.3147 59.545 19.205C57.4353 17.0952 56.25 14.2337 56.25 11.25M67.5 30C64.5163 30 61.6548 31.1853 59.545 33.295C57.4353 35.4048 56.25 38.2663 56.25 41.25M22.5 22.5C25.4837 22.5 28.3452 21.3147 30.455 19.205C32.5647 17.0952 33.75 14.2337 33.75 11.25M22.5 30C25.4837 30 28.3452 31.1853 30.455 33.295C32.5647 35.4048 33.75 38.2663 33.75 41.25M18.75 76.455H27.225C31.0125 76.455 34.8488 76.8525 38.535 77.61C45.1163 78.962 51.8879 79.112 58.5225 78.0525C61.7775 77.5275 64.9725 76.7212 67.8675 75.3262C70.4775 74.0625 73.6762 72.2888 75.825 70.2975C77.97 68.31 80.205 65.0587 81.7875 62.5162C83.1525 60.3337 82.4925 57.66 80.34 56.0362C79.1304 55.1564 77.6732 54.6825 76.1775 54.6825C74.6818 54.6825 73.2246 55.1564 72.015 56.0362L65.2387 61.155C62.6137 63.1425 59.745 64.9687 56.3287 65.5125C55.9162 65.5762 55.485 65.6363 55.035 65.6888M55.035 65.6888C54.8976 65.7047 54.7601 65.7197 54.6225 65.7337M55.035 65.6888C55.6352 65.5264 56.1856 65.2171 56.6362 64.7888C57.2013 64.2999 57.6628 63.7028 57.9933 63.0327C58.3239 62.3626 58.5169 61.6331 58.5609 60.8872C58.605 60.1413 58.4992 59.3941 58.2498 58.6898C58.0003 57.9855 57.6124 57.3382 57.1088 56.7862C56.6201 56.2437 56.0509 55.7796 55.4213 55.41C44.9325 49.1512 28.6087 53.9175 18.75 60.9113M55.035 65.6888C54.8995 65.7183 54.7612 65.7333 54.6225 65.7337M54.6225 65.7337C52.3609 65.961 50.0825 65.9661 47.82 65.7488" stroke="black" stroke-width="3" stroke-linecap="round"/>
<path d="M18.75 58.125C18.75 55.0184 16.2316 52.5 13.125 52.5C10.0184 52.5 7.5 55.0184 7.5 58.125V76.875C7.5 79.9816 10.0184 82.5 13.125 82.5C16.2316 82.5 18.75 79.9816 18.75 76.875V58.125Z" stroke="black" stroke-width="3"/>
</svg>
