<svg width="90" height="90" viewBox="0 0 90 90" fill="none" xmlns="http://www.w3.org/2000/svg">
<path d="M24.1629 42.507C24.1629 54.1517 33.2952 63.5834 44.5703 63.5834C48.2563 63.5834 51.7128 62.5691 54.6974 60.804L45.5141 49.4227C44.0728 47.6312 44.3024 44.9703 46.037 43.4818C47.7717 41.9933 50.3481 42.2304 51.7894 44.0219L60.8324 55.2319C63.4343 51.7016 64.9776 47.2887 64.9776 42.507C64.9776 30.8623 55.8453 21.4306 44.5703 21.4306C33.2952 21.4306 24.1629 30.8623 24.1629 42.507ZM59.9905 67.3508C55.5392 70.3015 50.246 72.014 44.5703 72.014C28.7928 72.014 16 58.8017 16 42.507C16 26.2123 28.7928 13 44.5703 13C60.3477 13 73.1405 26.2123 73.1405 42.507C73.1405 49.8969 70.5131 56.6545 66.1638 61.8314L72.1967 69.3136C73.638 71.1051 73.4084 73.766 71.6737 75.2545C69.9391 76.743 67.3627 76.5059 65.9214 74.7144L59.9778 67.3508H59.9905Z" fill="black"/>
</svg>
